<?xml version="1.0" encoding="UTF-8"?>
<svg width="44px" height="44px" viewBox="0 0 44 44" version="1.1" xmlns="http://www.w3.org/2000/svg" xmlns:xlink="http://www.w3.org/1999/xlink">
    <title>Appiys@1x</title>
    <g id="页面-1" stroke="none" stroke-width="1" fill="none" fill-rule="evenodd">
        <g id="切图" transform="translate(-1589.000000, -1434.000000)" fill="#999999" fill-rule="nonzero">
            <g id="Appiys" transform="translate(1590.000000, 1436.000000)">
                <path d="M37.3476646,0.0003035848 C40.0089801,0.0003035848 42.1667014,2.15785297 42.1667014,4.82140294 L42.1667014,34.9355278 C42.1667014,37.5990348 40.0089801,39.754178 37.3476646,39.754178 L4.81903686,39.754178 C2.15772126,39.754178 0,37.5990348 0,34.9355278 L0,4.82135998 C0,2.15785297 2.15772126,0.0003035848 4.81903686,0.0003035848 L11,0 L11,4.591 C11,5.10383584 11.3860402,5.52650716 11.8833789,5.58427227 L12,5.591 L13,5.591 C13.5522847,5.591 14,5.14328475 14,4.591 L14,4.591 L14,0 L28,0 L28,4.591 C28,5.10383584 28.3860402,5.52650716 28.8833789,5.58427227 L29,5.591 L30,5.591 C30.5522847,5.591 31,5.14328475 31,4.591 L31,4.591 L31,0 L37.3476646,0.0003035848 Z M30.5967274,13.5206604 L30.4997699,13.6081357 L19.2990928,24.7729769 L12.8777494,18.4111882 C12.4066824,17.9401642 11.6452753,17.9401642 11.1742083,18.4111882 C10.7345459,18.8508106 10.705235,19.5433141 11.0862758,20.016654 L11.1742083,20.1145574 L18.2219939,27.0980186 C18.2738143,27.1907453 18.3208221,27.2895735 18.4003144,27.3690658 C18.6352678,27.6039763 18.9461041,27.7196053 19.2557373,27.717199 C19.599058,27.7485233 19.9520897,27.649738 20.214715,27.3859096 C20.3017413,27.2988936 20.3746963,27.1991903 20.4312089,27.0904098 L20.4821528,26.9787372 L32.1888734,15.3042862 C32.6574912,14.8369145 32.6574912,14.0767535 32.1888734,13.6081357 C31.7548255,13.1707592 31.0657255,13.1416008 30.5967274,13.5206604 Z" id="形状结合"></path>
            </g>
        </g>
    </g>
</svg>