<?xml version="1.0" encoding="UTF-8"?>
<svg width="44px" height="44px" viewBox="0 0 44 44" version="1.1" xmlns="http://www.w3.org/2000/svg" xmlns:xlink="http://www.w3.org/1999/xlink">
    <title>home-选中@1x</title>
    <g id="页面-1" stroke="none" stroke-width="1" fill="none" fill-rule="evenodd">
        <g id="切图" transform="translate(-1513.000000, -1497.000000)" fill-rule="nonzero">
            <g id="home-选中" transform="translate(1513.000000, 1497.000000)">
                <path d="M2.30476188,12.6460807 C0.838095214,13.6912114 0,15.1543943 0,17.0356294 L0,38.7743468 C0,41.7007126 2.30476188,44 5.23809521,44 L38.7619048,44 C41.6952381,44 44,41.7007126 44,38.7743468 L44,16.8266034 C44,15.1543943 43.1619048,13.4821853 41.6952381,12.4370547 L24.9333333,0.940617571 C23.2571428,-0.31353919 20.7428572,-0.31353919 19.0666667,0.940617571 L2.30476188,12.6460807 Z" id="路径" fill="#0000A0"></path>
                <path d="M17.4918033,22.6666667 L26.5081967,22.6666667 C27.3096539,22.6666667 28.1111111,23.3541667 28.1111111,24.5 C28.1111111,25.4166666 27.5100182,26.3333333 26.5081967,26.3333333 L17.4918033,26.3333333 C16.6903461,26.3333333 15.8888889,25.6458333 15.8888889,24.5 C15.8888889,23.3541667 16.4899818,22.6666667 17.4918033,22.6666667 Z" id="路径" fill="#FFFFFF"></path>
            </g>
        </g>
    </g>
</svg>