<?xml version="1.0" encoding="UTF-8"?>
<svg width="30px" height="30px" viewBox="0 0 30 30" version="1.1" xmlns="http://www.w3.org/2000/svg" xmlns:xlink="http://www.w3.org/1999/xlink">
    <title>地址@1x</title>
    <g id="页面-1" stroke="none" stroke-width="1" fill="none" fill-rule="evenodd">
        <g id="切图" transform="translate(-1451.000000, -1525.000000)" fill="#999999">
            <path d="M1465.99977,1541.73474 C1463.48897,1541.73474 1461.44623,1539.68745 1461.44623,1537.17121 C1461.44623,1534.65678 1463.48897,1532.61041 1465.99977,1532.61041 C1468.51057,1532.61041 1470.55241,1534.65678 1470.55241,1537.17121 C1470.55241,1539.68745 1468.51057,1541.73474 1465.99977,1541.73474 M1477.99955,1537.02336 C1477.99955,1530.3935 1472.61602,1525 1465.99977,1525 C1459.38262,1525 1454,1530.3935 1454,1537.02336 C1454,1540.03214 1455.09485,1542.87131 1457.09587,1545.08459 L1457.07228,1545.10817 L1465.86825,1554.579 L1474.49731,1545.53813 L1474.91456,1545.09547 L1474.90368,1545.08459 C1476.9047,1542.87131 1477.99955,1540.03214 1477.99955,1537.02336" id="地址"></path>
        </g>
    </g>
</svg>