<?xml version="1.0" encoding="UTF-8"?>
<svg width="40px" height="40px" viewBox="0 0 40 40" version="1.1" xmlns="http://www.w3.org/2000/svg" xmlns:xlink="http://www.w3.org/1999/xlink">
    <title>密码@1x</title>
    <g id="页面-1" stroke="none" stroke-width="1" fill="none" fill-rule="evenodd">
        <g id="切图" transform="translate(-1806.000000, -1515.000000)">
            <g id="Lock" transform="translate(1806.000000, 1515.000000)">
                <rect id="BG" x="0" y="0" width="40" height="40"></rect>
                <path d="M9.50000028,20.6234967 L9.50000028,20.6234967 L9.5,32.0021596 C9.49999997,33.3762579 10.6222428,34.5 11.9976716,34.5 L28.0023284,34.5 C29.3807456,34.5 30.5000001,33.3809729 30.5000002,32.0021594 L30.5000005,20.6234965 C30.5000005,19.2493982 29.3777577,18.1256561 28.0023289,18.1256561 L11.9976721,18.1256561 C10.6192548,18.1256561 9.50000031,19.2446832 9.50000028,20.6234967 L9.50000028,20.6234967 Z M7.00000028,20.6234966 C7.00000034,17.8632655 9.23924885,15.6256561 11.9976721,15.6256561 L28.0023289,15.6256561 C30.7624668,15.6256561 33.0000005,17.8726868 33.0000005,20.6234966 L33.0000002,32.0021595 C33.0000001,34.7623906 30.7607516,37 28.0023284,37 L11.9976716,37 C9.2375337,37 6.99999993,34.7529693 7,32.0021595 L7.00000028,20.6234966 L7.00000028,20.6234966 Z M13.2500001,10.5599999 L13.2500001,10.5599999 L13.2500001,18.1199999 L10.7500001,15.6199999 L29.25,15.6199999 L26.75,18.1199998 L26.7500001,10.5599999 C26.7500001,7.76992626 24.4844324,5.5 21.6986592,5.5 L18.3013411,5.5 C15.5196474,5.5 13.2500001,7.76968897 13.2500001,10.5599999 L13.2500001,10.5599999 Z M20.0000001,23 C21.1045696,23 22.0000001,23.8954305 22.0000001,25 C22.0000001,25.7539189 21.5828474,26.4104066 20.9667665,26.7512386 C20.9887608,26.8330874 21.0000001,26.9196885 21.0000001,27.0093689 L21.0000001,28.9906311 C21.0000001,29.5082716 20.6172799,29.9349029 20.1173326,29.9932092 L20.0000001,30 C19.4477153,30 19.0000001,29.5566468 19.0000001,28.9906311 L19.0000001,27.0093689 C19.0000001,26.9202339 19.0113481,26.8337974 19.0326887,26.7514754 C18.4171528,26.4104066 18.0000001,25.7539189 18.0000001,25 C18.0000001,23.8954305 18.8954306,23 20.0000001,23 Z M21.6986592,3 C25.8691497,3 29.2500002,6.39322311 29.2500001,10.5599999 L29.25,18.1199999 L10.7500001,18.1199999 L10.7500001,10.5599999 C10.7500001,6.38472727 14.1431853,3 18.3013411,3 L21.6986592,3 Z" id="Pass" fill="#7B7B7B" fill-rule="nonzero" opacity="0.5"></path>
            </g>
        </g>
    </g>
</svg>