<?xml version="1.0" encoding="UTF-8"?>
<svg width="30px" height="30px" viewBox="0 0 30 30" version="1.1" xmlns="http://www.w3.org/2000/svg" xmlns:xlink="http://www.w3.org/1999/xlink">
    <title>电话@1x</title>
    <g id="页面-1" stroke="none" stroke-width="1" fill="none" fill-rule="evenodd">
        <g id="切图" transform="translate(-1451.000000, -1429.000000)" fill="#999999" fill-rule="nonzero">
            <path d="M1468.92022,1449.81863 L1469.67512,1449.35169 C1469.96994,1449.17613 1470.21219,1449.04165 1470.45631,1448.93332 C1472.16892,1448.1582 1473.67874,1448.70545 1475.67489,1451.0252 C1476.91053,1452.46336 1477.27483,1453.73716 1476.79786,1454.87274 C1476.44294,1455.7207 1475.7594,1456.3053 1474.54067,1457.02812 C1474.46179,1457.07481 1473.76135,1457.48198 1473.58108,1457.59218 C1470.74549,1459.33291 1464.24433,1455.34901 1459.57221,1448.54109 C1454.88131,1441.71636 1453.67009,1434.43962 1456.54322,1432.67272 L1456.92255,1432.43364 L1457.3338,1432.16842 C1458.78727,1431.23455 1459.71681,1430.861 1460.81912,1431.04591 C1461.92143,1431.23268 1462.8566,1432.04328 1463.64907,1433.5188 C1465.32037,1436.64168 1464.95231,1438.12279 1462.80403,1439.46945 C1462.64817,1439.56844 1462.09983,1439.89717 1462.04725,1439.92892 C1461.52144,1440.2539 1462.41343,1442.42609 1464.48847,1445.44624 C1466.58605,1448.5 1468.34185,1450.17165 1468.91648,1449.81863 L1468.92022,1449.81863 Z" id="电话"></path>
        </g>
    </g>
</svg>