<?xml version="1.0" encoding="UTF-8"?>
<svg width="36px" height="36px" viewBox="0 0 36 36" version="1.1" xmlns="http://www.w3.org/2000/svg" xmlns:xlink="http://www.w3.org/1999/xlink">
    <title>邮箱@1x</title>
    <g id="页面-1" stroke="none" stroke-width="1" fill="none" fill-rule="evenodd">
        <g id="切图" transform="translate(-1808.000000, -1422.000000)">
            <g id="Web-icon" transform="translate(1806.000000, 1420.000000)">
                <rect id="BG" x="0" y="0" width="40" height="40"></rect>
                <path d="M20,34.9264706 L20,34.9264706 C28.2436621,34.9264706 34.9264706,28.2436621 34.9264706,20 C34.9264706,11.7563379 28.2436621,5.07352941 20,5.07352941 C11.7563379,5.07352941 5.07352941,11.7563379 5.07352941,20 C5.07352941,28.2436621 11.7563379,34.9264706 20,34.9264706 L20,34.9264706 Z M20,37.5 L20,37.5 C10.3350169,37.5 2.5,29.6649831 2.5,20 C2.5,10.3350169 10.3350169,2.5 20,2.5 C29.6649831,2.5 37.5,10.3350169 37.5,20 C37.5,29.6649831 29.6649831,37.5 20,37.5 L20,37.5 Z M22.73768,3.52941176 C22.73768,3.52941176 30.6484482,8.76421494 30.6484482,20 C30.6484482,22.6550947 30.2122931,24.9651777 29.5407191,26.9484361 L34.4117647,26.9485294 L34.4117647,29.5220588 L28.4624636,29.5225349 C26.0224306,34.3589299 22.4121674,36.5605691 22.4121674,36.5605691 L22.4121674,36.5605691 L20.5147059,34.6770932 L20.5147059,34.6770932 L20.5301371,34.6697542 C20.7628303,34.5575101 23.5791099,33.144517 25.7031628,29.5230329 L14.3908618,29.5230329 C16.5149146,33.144517 19.3311943,34.5575101 19.5638874,34.6697542 L19.5793187,34.6770932 L19.5793187,34.6770932 L17.6818571,36.5605691 C17.6818571,36.5605691 14.071594,34.3589299 11.631561,29.5225349 L5.58823529,29.5220588 L5.58823529,26.9485294 L10.5533055,26.9484361 C9.88173151,24.9651777 9.44557639,22.6550947 9.44557639,20 C9.44557639,8.76421494 17.3563446,3.52941176 17.3563446,3.52941176 L19.5793187,5.26875987 C19.5793187,5.26875987 12.0191058,8.70653636 12.0191058,20 C12.0191058,22.7653381 12.4815296,25.0605796 13.1776471,26.9491068 L26.9163775,26.9491068 C27.612495,25.0605796 28.0749188,22.7653381 28.0749188,20 C28.0749188,8.70653636 20.5147059,5.26875987 20.5147059,5.26875987 L20.5147059,5.26875987 Z M3.52941176,18.7132353 L36.4705882,18.7132353 L36.4705882,21.2867647 L3.52941176,21.2867647 L3.52941176,18.7132353 Z M5.58823529,10.4779412 L34.4117647,10.4779412 L34.4117647,13.0514706 L5.58823529,13.0514706 L5.58823529,10.4779412 Z M21.2867647,3.52941176 L21.2867647,36.4705882 L18.7132353,36.4705882 L18.7132353,3.52941176 L21.2867647,3.52941176 Z" id="Internet-Icon" fill="#7B7B7B" fill-rule="nonzero" opacity="0.5"></path>
            </g>
        </g>
    </g>
</svg>